:SAMPLES-PER-SECOND 30
:FULLY-SPECIFIED
:DEGREES
275
root  4.30003 37.267 1.42177 -24.356 -64.4051 26.5857
RightUpLeg  -27.4042 20.0311 -10.7166
RightLeg  52.0158 -10.6282 -14.6053
RightFoot  -12.2792 -0.00522055 9.56419
RightToes  -1.28057e-009 0 -3.6325e-017
Spine  30.5655 -5.35756 2.35507
Spine1  -4.56036 -1.92485 -18.8085
HEad  -30.2676 -14.6917 2.28811
LeftShoulder1  1.1824 -4.10762 -8.03169
LeftArm  -39.933 -26.4027 -52.1767
LeftForeArm  112.951 -81.197 -77.693
LeftHand  1.62295 8.67668 51.9922
RightShoulder  0.102271 -2.45083 1.50467
RightArm  0.529074 30.3972 69.2322
RightForeArm  -176.907 76.9292 142.062
RightHand  -1.60562 -1.61129 -47.0514
LeftUpLeg  -20.9883 10.7108 -16.1261
LeftLeg  37.4152 3.49515 3.2567
LeftFoot  -14.3126 -0.0767047 -6.23926
LeftToes  -7.27922e-012 9.28972e-011 -9.04533e-012
276
root  4.15706 37.5882 1.00484 -11.7776 -65.3367 12.3769
RightUpLeg  -24.082 11.7285 -3.49868
RightLeg  45.9649 -7.33732 -8.38406
RightFoot  -12.2626 -0.0263396 6.85745
RightToes  -1.28057e-009 0 -3.6325e-017
Spine  31.4861 -3.38367 -1.42735
Spine1  -6.23374 -2.6861 -7.334
HEad  -29.4984 -10.9824 2.69705
LeftShoulder1  1.08407 -4.81376 -5.22639
LeftArm  -30.4388 -32.8258 -56.8133
LeftForeArm  -174.925 -76.0643 -145.289
LeftHand  1.3545 8.26867 49.7636
RightShoulder  0.148143 -2.20422 3.36924
RightArm  -16.582 27.0132 57.7048
RightForeArm  -172.648 71.1182 154.455
RightHand  -1.52243 -1.74387 -46.3479
LeftUpLeg  -20.181 -1.32106 -9.45095
LeftLeg  37.9264 12.0759 10.339
LeftFoot  -14.8134 -0.129653 -7.2066
LeftToes  -7.27922e-012 9.28972e-011 -9.04533e-012
277
root  3.89891 37.8243 0.57197 4.23991 -65.0469 -4.37036
RightUpLeg  -21.8937 1.03329 4.54992
RightLeg  39.7704 -1.62331 -1.75731
RightFoot  -11.6915 -0.064796 5.31621
RightToes  -1.28057e-009 0 -3.6325e-017
Spine  30.7061 -1.36024 -4.90842
Spine1  -7.31974 -3.15368 5.12215
HEad  -27.511 -7.20602 2.97752
LeftShoulder1  0.842851 -5.4849 -1.05987
LeftArm  -11.9471 -39.7734 -67.0576
LeftForeArm  -161.247 -72.3354 -154.006
LeftHand  0.891198 7.40745 46.9037
RightShoulder  0.246221 -1.71331 6.09103
RightArm  -31.441 20.5482 47.9165
RightForeArm  175.921 72.2026 150.709
RightHand  -1.7118 -1.39323 -47.3556
LeftUpLeg  -21.5831 -13.9108 -1.24905
LeftLeg  41.4485 19.9939 18.3197
LeftFoot  -14.4799 -0.163421 -9.13514
LeftToes  -7.27922e-012 9.28972e-011 -9.04533e-012
278
root  3.51997 37.8978 0.185615 20.1104 -61.9202 -19.9465
RightUpLeg  -20.6522 -10.7853 13.0726
RightLeg  34.1046 5.66347 3.87426
RightFoot  -11.8771 -0.0480182 6.30592
RightToes  -1.28057e-009 0 -3.6325e-017
Spine  28.7085 -0.0554029 -8.2855
Spine1  -8.19026 -4.22099 18.9721
HEad  -24.5689 -3.63687 3.07693
LeftShoulder1  0.503169 -5.67931 3.39654
LeftArm  10.4323 -43.1206 -81.4107
LeftForeArm  -170.013 -76.6244 -142.761
LeftHand  0.614553 6.76033 47.201
RightShoulder  0.376261 -1.15409 8.66941
RightArm  -39.735 14.0746 42.6783
RightForeArm  153.388 78.1084 130.289
RightHand  -2.01492 -0.91604 -49.4871
LeftUpLeg  -25.5763 -23.9969 8.27061
LeftLeg  46.9213 23.8716 25.2038
LeftFoot  -13.6127 -0.100184 -9.08118
LeftToes  -7.27922e-012 9.28972e-011 -9.04533e-012
279
root  3.10823 37.7725 -0.113803 29.5138 -57.8041 -28.7735
RightUpLeg  -20.0962 -19.9202 19.9977
RightLeg  30.4137 12.1573 7.41937
RightFoot  -13.474 0.0726638 8.75942
RightToes  -1.28057e-009 0 -3.6325e-017
Spine  26.9444 0.573206 -11.7961
Spine1  -9.24121 -5.4706 31.1782
HEad  -22.0384 -1.09801 4.08066
LeftShoulder1  0.265177 -5.45062 6.26453
LeftArm  30.12 -41.9086 -94.3288
LeftForeArm  131.497 -81.6661 -82.8651
LeftHand  0.40796 6.21853 49.7168
RightShoulder  0.520986 -0.588901 10.7476
RightArm  -43.1446 7.79937 42.3053
RightForeArm  101.571 80.7926 77.1036
RightHand  -2.50625 -0.0928907 -51.6273
LeftUpLeg  -30.001 -29.8951 16.3875
LeftLeg  51.5278 24.4561 29.5197
LeftFoot  -13.1883 -0.0383787 -7.3047
LeftToes  -7.27922e-012 9.28972e-011 -9.04533e-012
280
root  2.86426 37.6828 -0.265667 32.7482 -56.2151 -31.1703
RightUpLeg  -20.2284 -21.9429 22.8137
RightLeg  28.7295 13.9636 7.95244
RightFoot  -15.0932 0.226134 10.0821
RightToes  -1.28057e-009 0 -3.6325e-017
Spine  26.1606 0.891353 -14.5335
Spine1  -9.82402 -6.06994 36.349
HEad  -21.6883 -0.341076 6.43375
LeftShoulder1  0.236178 -5.06199 6.47765
LeftArm  44.397 -37.5746 -101.484
LeftForeArm  77.3058 -72.3736 -25.7809
LeftHand  0.275571 5.90701 51.1952
RightShoulder  0.705387 0.00218286 13.1993
RightArm  -43.552 0.933832 45.2671
RightForeArm  60.8657 75.2341 37.0389
RightHand  -3.02852 0.781444 -53.2931
LeftUpLeg  -32.2452 -31.4807 19.9099
LeftLeg  52.8044 24.349 30.5946
LeftFoot  -13.1435 -0.0347183 -7.17816
LeftToes  -7.27922e-012 9.28972e-011 -9.04533e-012
